<?xml version="1.0" encoding="UTF-8" standalone="no"?>
<!DOCTYPE svg PUBLIC "-//W3C//DTD SVG 1.1//EN" "http://www.w3.org/Graphics/SVG/1.1/DTD/svg11.dtd">
<svg width="100%" height="100%" viewBox="0 0 4000 3000" version="1.1" xmlns="http://www.w3.org/2000/svg" xmlns:xlink="http://www.w3.org/1999/xlink" xml:space="preserve" xmlns:serif="http://www.serif.com/" style="fill-rule:evenodd;clip-rule:evenodd;stroke-linejoin:round;stroke-miterlimit:2;">
    <rect id="secure-6" serif:id="secure 6" x="0" y="0" width="4000" height="3000" style="fill:none;"/>
    <g id="secure-61" serif:id="secure 6">
        <rect x="0" y="0" width="4000" height="3000" style="fill:white;"/>
        <path d="M3158.21,2515.87c120.578,-208.849 184.058,-445.757 184.058,-686.914c-0,-758.236 -615.592,-1373.83 -1373.83,-1373.83c-758.236,0 -1373.83,615.592 -1373.83,1373.83c-0,241.157 63.479,478.065 184.058,686.914l2379.54,-0Z" style="fill:url(#_Linear1);"/>
        <g>
            <path d="M1040.47,2530.37c-259.637,-143.258 -168.772,-300.854 -39.713,-255.782c-220.696,-136.088 -270.723,-363.443 -77.965,-328.777c-0,0 -198.405,-224.944 -29.852,-300.868c141.909,-63.923 203.464,240.859 203.464,240.859c0,0 37.634,-85.849 124.426,-66.924c134.327,29.29 112.797,353.458 112.797,353.458c120.509,-167.877 277.646,41.441 116.148,358.034l-409.305,-0Z" style="fill:rgb(79,123,173);"/>
            <path d="M979.313,1857.95l327.979,675.038c1.448,2.978 5.041,4.222 8.019,2.774c2.979,-1.447 4.222,-5.04 2.775,-8.018l-327.98,-675.038c-1.447,-2.979 -5.04,-4.222 -8.019,-2.775c-2.978,1.447 -4.221,5.04 -2.774,8.019Z" style="fill:rgb(164,187,213);"/>
        </g>
        <g>
            <path d="M2914.01,2530.37c259.638,-143.258 168.773,-300.854 39.714,-255.782c220.695,-136.088 270.723,-363.443 77.965,-328.777c0,0 198.404,-224.944 29.852,-300.868c-141.909,-63.923 -203.465,240.859 -203.465,240.859c0,0 -37.633,-85.849 -124.425,-66.924c-134.328,29.29 -112.797,353.458 -112.797,353.458c-120.51,-167.877 -277.646,41.441 -116.148,358.034l409.304,-0Z" style="fill:rgb(79,123,173);"/>
            <path d="M2964.37,1852.71l-327.98,675.038c-1.447,2.978 -0.204,6.571 2.775,8.018c2.978,1.448 6.571,0.204 8.018,-2.774l327.98,-675.038c1.447,-2.979 0.204,-6.572 -2.775,-8.019c-2.978,-1.447 -6.571,-0.204 -8.018,2.775Z" style="fill:rgb(164,187,213);"/>
        </g>
        <path d="M3293.35,2530.37c0,-8.003 -6.497,-14.5 -14.5,-14.5l-2620.82,-0c-8.003,-0 -14.5,6.497 -14.5,14.5c-0,8.002 6.497,14.5 14.5,14.5l2620.82,-0c8.003,-0 14.5,-6.498 14.5,-14.5Z" style="fill:rgb(36,61,106);"/>
        <g>
            <path d="M2036.07,2185.77c-0.584,-0.006 -1.168,-0.013 -1.752,-0.021c-3.289,-0.043 -5.995,2.593 -6.038,5.882c-0.043,3.289 2.593,5.994 5.882,6.037c0.592,0.008 1.185,0.015 1.778,0.022c3.289,0.036 5.989,-2.605 6.025,-5.895c0.036,-3.289 -2.606,-5.988 -5.895,-6.025Zm70.909,-2.403c-7.888,0.638 -15.757,1.144 -23.6,1.527c-3.286,0.161 -5.823,2.958 -5.662,6.244c0.16,3.285 2.958,5.823 6.244,5.662c7.969,-0.389 15.964,-0.904 23.978,-1.551c3.278,-0.265 5.725,-3.142 5.46,-6.421c-0.264,-3.278 -3.141,-5.725 -6.42,-5.461Zm70.264,-9.271c-7.768,1.444 -15.538,2.741 -23.301,3.899c-3.254,0.486 -5.501,3.521 -5.016,6.775c0.485,3.253 3.521,5.5 6.774,5.015c7.904,-1.179 15.813,-2.5 23.722,-3.97c3.234,-0.602 5.371,-3.715 4.77,-6.949c-0.601,-3.234 -3.715,-5.372 -6.949,-4.77Zm68.763,-16.85c-7.548,2.324 -15.114,4.487 -22.692,6.496c-3.18,0.843 -5.077,4.109 -4.234,7.289c0.843,3.179 4.109,5.076 7.289,4.233c7.729,-2.049 15.446,-4.255 23.144,-6.625c3.144,-0.968 4.91,-4.306 3.942,-7.45c-0.968,-3.144 -4.306,-4.91 -7.449,-3.943Zm66.188,-24.937c-7.203,3.246 -14.44,6.32 -21.704,9.229c-3.054,1.223 -4.54,4.695 -3.317,7.749c1.223,3.053 4.695,4.54 7.748,3.317c7.421,-2.972 14.812,-6.112 22.17,-9.427c2.999,-1.351 4.337,-4.883 2.986,-7.882c-1.352,-2.999 -4.884,-4.337 -7.883,-2.986Zm62.43,-33.165c-6.729,4.161 -13.504,8.146 -20.32,11.958c-2.871,1.606 -3.897,5.241 -2.292,8.111c1.606,2.871 5.241,3.898 8.112,2.292c6.966,-3.897 13.891,-7.969 20.769,-12.223c2.798,-1.73 3.665,-5.406 1.934,-8.204c-1.73,-2.797 -5.406,-3.664 -8.203,-1.934Zm57.555,-41.041c-6.141,5.013 -12.337,9.849 -18.584,14.513c-2.636,1.968 -3.178,5.706 -1.21,8.341c1.968,2.636 5.705,3.178 8.341,1.21c6.383,-4.766 12.715,-9.707 18.991,-14.83c2.548,-2.08 2.928,-5.837 0.848,-8.386c-2.08,-2.548 -5.837,-2.928 -8.386,-0.848Zm51.857,-48.097c-5.48,5.753 -11.021,11.335 -16.618,16.751c-2.364,2.287 -2.426,6.063 -0.139,8.427c2.287,2.364 6.063,2.427 8.428,0.139c5.712,-5.526 11.366,-11.223 16.96,-17.095c2.269,-2.382 2.177,-6.157 -0.205,-8.426c-2.381,-2.269 -6.157,-2.178 -8.426,0.204Zm45.75,-54.027c-4.794,6.358 -9.649,12.554 -14.564,18.593c-2.076,2.551 -1.691,6.308 0.861,8.384c2.551,2.077 6.308,1.691 8.384,-0.86c5.007,-6.152 9.953,-12.464 14.837,-18.94c1.98,-2.626 1.456,-6.367 -1.171,-8.347c-2.626,-1.98 -6.366,-1.456 -8.347,1.17Zm39.648,-58.75c-4.123,6.827 -8.308,13.505 -12.552,20.036c-1.792,2.759 -1.008,6.453 1.751,8.245c2.758,1.792 6.452,1.008 8.245,-1.75c4.314,-6.64 8.568,-13.428 12.76,-20.368c1.7,-2.816 0.795,-6.482 -2.02,-8.183c-2.816,-1.701 -6.483,-0.796 -8.184,2.02Zm33.856,-62.363c-3.498,7.178 -7.055,14.22 -10.669,21.128c-1.525,2.914 -0.397,6.518 2.518,8.043c2.915,1.525 6.519,0.397 8.044,-2.518c3.666,-7.007 7.274,-14.15 10.822,-21.431c1.441,-2.957 0.21,-6.528 -2.747,-7.969c-2.957,-1.441 -6.527,-0.21 -7.968,2.747Zm28.543,-65.05c-2.93,7.434 -5.916,14.745 -8.957,21.933c-1.282,3.03 0.138,6.53 3.167,7.811c3.03,1.282 6.53,-0.137 7.811,-3.167c3.079,-7.278 6.102,-14.679 9.069,-22.206c1.206,-3.06 -0.299,-6.524 -3.36,-7.73c-3.06,-1.206 -6.524,0.299 -7.73,3.359Zm23.773,-67.012c-2.424,7.618 -4.9,15.124 -7.428,22.519c-1.064,3.113 0.599,6.503 3.711,7.567c3.113,1.065 6.504,-0.599 7.568,-3.711c2.555,-7.475 5.058,-15.061 7.508,-22.762c0.997,-3.134 -0.738,-6.489 -3.873,-7.486c-3.134,-0.997 -6.489,0.738 -7.486,3.873Zm20.211,-68.615c-1.998,6.222 -3.876,12.564 -5.629,19.029c-0.371,1.369 -0.744,2.735 -1.119,4.098c-0.871,3.172 0.996,6.454 4.168,7.326c3.172,0.872 6.455,-0.996 7.326,-4.168c0.378,-1.376 0.755,-2.755 1.13,-4.137c1.704,-6.286 3.531,-12.454 5.473,-18.504c1.006,-3.132 -0.72,-6.491 -3.852,-7.497c-3.132,-1.006 -6.491,0.721 -7.497,3.853Zm28.123,-66.805c-3.738,7.039 -7.308,14.272 -10.696,21.704c-1.365,2.993 -0.043,6.531 2.95,7.896c2.993,1.364 6.531,0.042 7.896,-2.951c3.287,-7.211 6.751,-14.229 10.378,-21.058c1.543,-2.905 0.436,-6.516 -2.469,-8.059c-2.905,-1.543 -6.516,-0.437 -8.059,2.468Zm39.697,-60.671c-4.964,6.265 -9.786,12.731 -14.45,19.406c-1.884,2.697 -1.225,6.415 1.471,8.3c2.697,1.884 6.416,1.224 8.3,-1.472c4.526,-6.477 9.205,-12.752 14.022,-18.831c2.042,-2.578 1.608,-6.33 -0.971,-8.373c-2.578,-2.042 -6.329,-1.608 -8.372,0.97Zm49.77,-52.654c-5.963,5.326 -11.828,10.853 -17.575,16.588c-2.328,2.324 -2.332,6.101 -0.008,8.429c2.324,2.328 6.1,2.332 8.429,0.008c5.59,-5.579 11.294,-10.955 17.094,-16.135c2.453,-2.191 2.666,-5.962 0.475,-8.415c-2.191,-2.454 -5.962,-2.666 -8.415,-0.475Zm57.555,-43.853c-6.683,4.347 -13.325,8.89 -19.903,13.636c-2.667,1.925 -3.27,5.654 -1.346,8.321c1.925,2.667 5.654,3.27 8.321,1.346c6.421,-4.634 12.904,-9.067 19.427,-13.31c2.758,-1.794 3.54,-5.489 1.747,-8.246c-1.794,-2.757 -5.489,-3.54 -8.246,-1.747Zm63.078,-35.232c-7.149,3.413 -14.33,7.017 -21.518,10.822c-2.907,1.54 -4.017,5.15 -2.478,8.057c1.539,2.907 5.149,4.017 8.056,2.478c7.04,-3.727 14.074,-7.257 21.075,-10.6c2.969,-1.417 4.228,-4.977 2.811,-7.946c-1.417,-2.968 -4.978,-4.228 -7.946,-2.811Zm66.815,-27.254c-7.397,2.547 -14.943,5.289 -22.6,8.241c-3.069,1.184 -4.6,4.636 -3.417,7.705c1.183,3.069 4.636,4.601 7.705,3.417c7.519,-2.898 14.929,-5.591 22.193,-8.092c3.11,-1.071 4.765,-4.465 3.695,-7.576c-1.071,-3.11 -4.466,-4.766 -7.576,-3.695Zm69.316,-19.872c-7.372,1.706 -15.172,3.638 -23.328,5.824c-3.177,0.851 -5.065,4.122 -4.214,7.299c0.851,3.178 4.122,5.066 7.3,4.214c8.017,-2.148 15.683,-4.047 22.929,-5.724c3.205,-0.741 5.205,-3.945 4.463,-7.15c-0.741,-3.205 -3.945,-5.204 -7.15,-4.463Zm71.311,-12.197c0,0 -8.831,0.708 -24.073,3.051c-3.251,0.5 -5.485,3.545 -4.985,6.796c0.5,3.252 3.545,5.485 6.796,4.986c14.703,-2.261 23.22,-2.951 23.22,-2.951c3.279,-0.265 5.726,-3.141 5.462,-6.42c-0.265,-3.279 -3.141,-5.726 -6.42,-5.462Z" style="fill:rgb(243,249,255);"/>
            <g>
                <path d="M3405.39,1189.04l-349.828,99.17l-81.382,-58.824l431.21,-40.346Z" style="fill:rgb(80,195,251);"/>
                <path d="M3405.39,1189.04l-349.828,99.17l14.668,103.024l335.16,-202.194Z" style="fill:rgb(32,142,215);"/>
                <path d="M3405.39,1189.04l-343.289,116.344l82.316,115.764l260.973,-232.108Z" style="fill:rgb(80,195,251);"/>
            </g>
        </g>
        <g>
            <path d="M2306.56,2140.11c7.169,1.021 11.18,1.275 11.18,1.275c3.362,0.218 6.268,-2.335 6.486,-5.697c0.217,-3.362 -2.336,-6.269 -5.698,-6.486c0,0 -3.675,-0.243 -10.247,-1.179c-3.335,-0.475 -6.429,1.847 -6.904,5.183c-0.475,3.335 1.847,6.429 5.183,6.904Zm-72.027,-18.713c8.263,3.057 16.145,5.653 23.53,7.856c3.229,0.963 6.632,-0.876 7.595,-4.105c0.963,-3.228 -0.876,-6.631 -4.105,-7.594c-7.151,-2.133 -14.783,-4.647 -22.784,-7.607c-3.159,-1.169 -6.674,0.447 -7.843,3.607c-1.169,3.16 0.448,6.674 3.607,7.843Zm-66.897,-32.376c7.27,4.439 14.484,8.506 21.589,12.23c2.984,1.564 6.677,0.411 8.241,-2.573c1.564,-2.984 0.411,-6.676 -2.573,-8.24c-6.876,-3.605 -13.858,-7.54 -20.894,-11.837c-2.875,-1.756 -6.635,-0.847 -8.391,2.029c-1.756,2.875 -0.847,6.635 2.028,8.391Zm-59.265,-44.902c6.192,5.761 12.449,11.183 18.736,16.286c2.616,2.124 6.463,1.723 8.587,-0.892c2.123,-2.616 1.723,-6.464 -0.893,-8.587c-6.079,-4.933 -12.128,-10.176 -18.115,-15.745c-2.466,-2.295 -6.332,-2.156 -8.627,0.311c-2.295,2.467 -2.155,6.332 0.312,8.627Zm-49.086,-55.836c4.923,6.861 9.967,13.416 15.111,19.678c2.138,2.604 5.988,2.982 8.591,0.843c2.604,-2.138 2.982,-5.988 0.843,-8.591c-4.978,-6.062 -9.861,-12.407 -14.625,-19.048c-1.964,-2.737 -5.781,-3.365 -8.519,-1.401c-2.737,1.964 -3.365,5.781 -1.401,8.519Zm-37.494,-64.104c3.591,7.63 7.327,14.993 11.19,22.098c1.61,2.959 5.32,4.055 8.279,2.446c2.96,-1.61 4.056,-5.319 2.447,-8.279c-3.753,-6.901 -7.381,-14.053 -10.869,-21.464c-1.435,-3.048 -5.075,-4.358 -8.123,-2.924c-3.048,1.435 -4.358,5.075 -2.924,8.123Zm-26.071,-69.396c2.353,8.076 4.852,15.925 7.486,23.553c1.099,3.185 4.578,4.877 7.762,3.778c3.185,-1.1 4.877,-4.578 3.778,-7.763c-2.57,-7.443 -5.009,-15.102 -7.305,-22.983c-0.942,-3.235 -4.333,-5.096 -7.568,-4.153c-3.235,0.942 -5.096,4.333 -4.153,7.568Zm-15.924,-72.254c1.292,8.286 2.722,16.379 4.281,24.286c0.652,3.305 3.865,5.46 7.17,4.808c3.305,-0.652 5.46,-3.865 4.808,-7.17c-1.528,-7.75 -2.929,-15.684 -4.196,-23.805c-0.519,-3.329 -3.643,-5.61 -6.972,-5.091c-3.329,0.519 -5.61,3.643 -5.091,6.972Zm-7.418,-73.483c0.419,8.348 0.963,16.534 1.628,24.561c0.278,3.358 3.229,5.858 6.587,5.58c3.358,-0.278 5.858,-3.229 5.58,-6.587c-0.654,-7.898 -1.19,-15.953 -1.602,-24.166c-0.169,-3.365 -3.038,-5.96 -6.403,-5.791c-3.365,0.169 -5.959,3.038 -5.79,6.403Zm-0.461,-73.747c-0.29,8.328 -0.467,16.518 -0.534,24.572c-0.028,3.369 2.684,6.128 6.053,6.156c3.369,0.028 6.127,-2.684 6.155,-6.053c0.067,-7.949 0.241,-16.032 0.528,-24.25c0.117,-3.367 -2.522,-6.196 -5.889,-6.313c-3.367,-0.117 -6.195,2.521 -6.313,5.888Zm5.209,-73.478c-0.867,8.265 -1.632,16.412 -2.298,24.442c-0.278,3.358 2.222,6.31 5.579,6.588c3.358,0.278 6.31,-2.221 6.588,-5.579c0.659,-7.943 1.416,-16.002 2.274,-24.178c0.351,-3.35 -2.084,-6.356 -5.435,-6.708c-3.35,-0.351 -6.356,2.084 -6.708,5.435Zm9.858,-72.936c-1.341,8.183 -2.59,16.263 -3.749,24.242c-0.484,3.334 1.829,6.434 5.163,6.918c3.334,0.485 6.435,-1.829 6.919,-5.163c1.149,-7.906 2.386,-15.913 3.715,-24.022c0.545,-3.325 -1.711,-6.466 -5.036,-7.011c-3.325,-0.545 -6.467,1.712 -7.012,5.036Zm13.711,-72.255c-1.736,8.092 -3.387,16.093 -4.957,24.005c-0.656,3.304 1.495,6.52 4.8,7.175c3.305,0.656 6.52,-1.495 7.175,-4.8c1.558,-7.85 3.197,-15.79 4.919,-23.82c0.706,-3.295 -1.395,-6.543 -4.689,-7.249c-3.294,-0.706 -6.542,1.395 -7.248,4.689Zm16.941,-71.524c-2.067,8 -4.058,15.919 -5.974,23.758c-0.799,3.273 1.208,6.579 4.481,7.379c3.273,0.8 6.579,-1.208 7.379,-4.481c1.903,-7.787 3.881,-15.654 5.934,-23.601c0.843,-3.262 -1.121,-6.595 -4.383,-7.438c-3.262,-0.843 -6.595,1.121 -7.437,4.383Zm15.399,-71.053c-1.321,7.844 -2.789,15.782 -4.409,23.817c-0.666,3.302 1.475,6.524 4.778,7.19c3.303,0.665 6.525,-1.476 7.19,-4.778c1.646,-8.165 3.138,-16.231 4.48,-24.201c0.56,-3.322 -1.683,-6.474 -5.006,-7.034c-3.322,-0.559 -6.474,1.684 -7.033,5.006Zm8.262,-72.081c-0.461,7.927 -1.083,15.962 -1.872,24.109c-0.325,3.354 2.134,6.34 5.487,6.665c3.354,0.324 6.34,-2.135 6.665,-5.488c0.804,-8.305 1.438,-16.497 1.908,-24.577c0.196,-3.363 -2.376,-6.253 -5.739,-6.448c-3.364,-0.196 -6.253,2.376 -6.449,5.739Zm-0.346,-72.412c0.564,7.911 0.955,15.947 1.165,24.11c0.087,3.368 2.891,6.032 6.259,5.946c3.368,-0.087 6.032,-2.892 5.946,-6.26c-0.216,-8.351 -0.615,-16.572 -1.192,-24.664c-0.24,-3.361 -3.162,-5.894 -6.523,-5.655c-3.361,0.24 -5.894,3.163 -5.655,6.523Zm-10.386,-71.525c1.733,7.741 3.287,15.622 4.653,23.646c0.565,3.321 3.721,5.559 7.042,4.994c3.322,-0.566 5.559,-3.721 4.994,-7.043c-1.402,-8.234 -2.997,-16.322 -4.775,-24.265c-0.737,-3.287 -4.004,-5.359 -7.291,-4.623c-3.288,0.737 -5.359,4.004 -4.623,7.291Zm-21.412,-68.925c2.975,7.369 5.775,14.89 8.39,22.567c1.086,3.189 4.557,4.896 7.746,3.81c3.19,-1.086 4.897,-4.557 3.811,-7.746c-2.688,-7.893 -5.567,-15.626 -8.626,-23.201c-1.261,-3.125 -4.821,-4.637 -7.946,-3.376c-3.124,1.262 -4.636,4.822 -3.375,7.946Zm-32.514,-64.406c4.172,6.792 8.186,13.742 12.031,20.856c1.602,2.964 5.309,4.069 8.273,2.467c2.963,-1.602 4.069,-5.309 2.467,-8.272c-3.952,-7.313 -8.079,-14.459 -12.368,-21.441c-1.764,-2.871 -5.526,-3.77 -8.397,-2.006c-2.871,1.763 -3.77,5.526 -2.006,8.396Zm-42.625,-58.282c5.21,6.065 10.293,12.289 15.233,18.676c2.061,2.665 5.899,3.155 8.563,1.093c2.665,-2.061 3.155,-5.898 1.094,-8.563c-5.069,-6.553 -10.284,-12.94 -15.63,-19.162c-2.196,-2.556 -6.053,-2.848 -8.608,-0.652c-2.556,2.196 -2.848,6.053 -0.652,8.608Zm-50.999,-51.278c6.033,5.274 11.974,10.704 17.81,16.293c2.433,2.331 6.3,2.247 8.631,-0.186c2.33,-2.433 2.247,-6.3 -0.186,-8.631c-5.97,-5.717 -12.048,-11.272 -18.219,-16.667c-2.536,-2.218 -6.396,-1.959 -8.613,0.577c-2.218,2.537 -1.959,6.396 0.577,8.614Zm-57.452,-44.143c6.639,4.493 13.229,9.137 19.756,13.937c2.714,1.996 6.538,1.413 8.534,-1.302c1.996,-2.714 1.413,-6.538 -1.301,-8.534c-6.655,-4.894 -13.376,-9.63 -20.145,-14.212c-2.79,-1.888 -6.589,-1.156 -8.477,1.634c-1.889,2.79 -1.157,6.588 1.633,8.477Zm-62.215,-37.367c7.063,3.762 14.129,7.672 21.178,11.735c2.919,1.682 6.655,0.678 8.337,-2.241c1.683,-2.919 0.679,-6.654 -2.24,-8.337c-7.169,-4.131 -14.353,-8.107 -21.536,-11.933c-2.973,-1.584 -6.673,-0.455 -8.257,2.518c-1.584,2.974 -0.456,6.674 2.518,8.258Zm-65.663,-31.138c7.341,3.088 14.75,6.327 22.205,9.721c3.066,1.397 6.689,0.041 8.085,-3.025c1.396,-3.067 0.04,-6.689 -3.026,-8.086c-7.563,-3.444 -15.081,-6.73 -22.53,-9.864c-3.105,-1.306 -6.687,0.154 -7.994,3.26c-1.306,3.105 0.154,6.687 3.26,7.994Zm-68.149,-25.427c7.483,2.457 15.142,5.077 22.946,7.867c3.172,1.134 6.669,-0.52 7.803,-3.692c1.135,-3.173 -0.52,-6.669 -3.692,-7.804c-7.907,-2.827 -15.667,-5.481 -23.248,-7.97c-3.201,-1.051 -6.653,0.695 -7.704,3.896c-1.051,3.201 0.694,6.653 3.895,7.703Zm-69.956,-20.022c7.401,1.812 15.251,3.832 23.487,6.076c3.25,0.886 6.608,-1.034 7.494,-4.285c0.886,-3.251 -1.034,-6.609 -4.285,-7.494c-8.343,-2.274 -16.294,-4.319 -23.791,-6.156c-3.273,-0.801 -6.58,1.205 -7.382,4.477c-0.801,3.273 1.205,6.58 4.477,7.382Zm-71.134,-14.108c-0,-0 8.636,1.088 23.749,3.879c3.313,0.612 6.499,-1.581 7.111,-4.894c0.612,-3.313 -1.581,-6.499 -4.894,-7.111c-15.553,-2.873 -24.443,-3.988 -24.443,-3.988c-3.343,-0.42 -6.398,1.953 -6.819,5.296c-0.42,3.342 1.953,6.397 5.296,6.818Z" style="fill:rgb(243,249,255);"/>
            <g>
                <path d="M1146.42,537.274l333.471,43.48l64.329,-65.894l-397.8,22.414Z" style="fill:rgb(117,198,255);"/>
                <path d="M1146.42,537.274l333.471,43.48l3.357,97.655l-336.828,-141.135Z" style="fill:rgb(68,158,222);"/>
                <path d="M1146.42,537.274l330.316,60.327l-55.964,118.87l-274.352,-179.197Z" style="fill:rgb(117,198,255);"/>
            </g>
        </g>
        <g>
            <path d="M1885.27,926.065c48.335,-39.704 117.995,-39.704 166.331,0c194.984,160.165 665.228,546.434 665.228,546.434l-0,1043.37l-1496.79,-0l0,-1043.37l665.229,-546.434Z" style="fill:rgb(210,121,5);"/>
            <g>
                <path d="M2629.89,875.594c-0,-21.904 -17.783,-39.687 -39.687,-39.687l-1243.52,-0c-21.904,-0 -39.687,17.783 -39.687,39.687l0,1540.21c0,21.903 17.783,39.686 39.687,39.686l1243.52,0c21.904,0 39.687,-17.783 39.687,-39.686l-0,-1540.21Z" style="fill:url(#_Linear2);"/>
                <path d="M1661.38,1334.96c0,-10.867 -8.822,-19.689 -19.688,-19.689l-157.51,0c-10.866,0 -19.688,8.822 -19.688,19.689l-0,157.507c-0,10.867 8.822,19.689 19.688,19.689l157.51,-0c10.866,-0 19.688,-8.822 19.688,-19.689l0,-157.507Zm270.333,-0c-0,-10.867 -8.822,-19.689 -19.689,-19.689l-157.509,0c-10.867,0 -19.689,8.822 -19.689,19.689l0,157.507c0,10.867 8.822,19.689 19.689,19.689l157.509,-0c10.867,-0 19.689,-8.822 19.689,-19.689l-0,-157.507Zm270.333,-0c-0,-10.867 -8.822,-19.689 -19.689,-19.689l-157.509,0c-10.867,0 -19.689,8.822 -19.689,19.689l0,157.507c0,10.867 8.822,19.689 19.689,19.689l157.509,-0c10.867,-0 19.689,-8.822 19.689,-19.689l-0,-157.507Zm270.333,-0c-0,-10.867 -8.823,-19.689 -19.689,-19.689l-157.51,0c-10.866,0 -19.688,8.822 -19.688,19.689l0,157.507c0,10.867 8.822,19.689 19.688,19.689l157.51,-0c10.866,-0 19.689,-8.822 19.689,-19.689l-0,-157.507Z" style="fill:rgb(158,188,226);"/>
                <path d="M1983.65,1165.86c9.718,-0 17.662,-3.845 23.831,-11.535l12.676,13.056c-10.056,11.324 -21.908,16.986 -35.557,16.986c-13.648,0 -24.887,-4.31 -33.719,-12.929c-8.831,-8.62 -13.246,-19.501 -13.246,-32.642c-0,-13.141 4.5,-24.106 13.5,-32.895c9,-8.789 20.007,-13.183 33.022,-13.183c14.535,-0 26.704,5.535 36.507,16.606l-12.296,13.944c-6.253,-7.775 -14.028,-11.663 -23.324,-11.663c-7.437,0 -13.796,2.43 -19.078,7.289c-5.282,4.859 -7.923,11.409 -7.923,19.649c0,8.239 2.493,14.852 7.479,19.838c4.987,4.986 11.029,7.479 18.128,7.479Zm332.626,5.261c-8.958,8.746 -19.986,13.12 -33.085,13.12c-13.099,-0 -24.127,-4.374 -33.085,-13.12c-8.958,-8.747 -13.437,-19.628 -13.437,-32.642c-0,-13.014 4.479,-23.895 13.437,-32.641c8.958,-8.747 19.986,-13.12 33.085,-13.12c13.099,-0 24.127,4.373 33.085,13.12c8.958,8.746 13.437,19.627 13.437,32.641c0,13.014 -4.479,23.895 -13.437,32.642Zm-763.621,-19.966l22.564,-56.409l21.423,-0l-35.621,88.607l-16.733,0l-35.62,-88.607l21.423,-0l22.564,56.409Zm647.506,-56.409l19.775,-0l0,88.607l-19.775,0l0,-88.607Zm-417.938,-0l19.775,-0l-0,88.607l-19.775,0l-0,-88.607Zm119.157,-0l19.775,-0l0,88.607l-19.775,0l0,-88.607Zm-16.732,-0l-0,17.366l-41.072,0l0,19.142l39.043,-0l0,17.366l-39.043,0l0,34.733l-19.775,0l0,-88.607l60.847,-0Zm-213.596,-0l-0,17.62l-44.114,-0l0,18.254l39.677,-0l-0,16.859l-39.677,0l0,18.381l45.508,-0l-0,17.493l-65.283,0l-0,-88.607l63.889,-0Zm489.559,17.113l0,71.494l-19.775,0l-0,-71.494l-25.099,-0l-0,-17.113l69.973,-0l0,17.113l-25.099,-0Zm-398.67,12.296c-0,14.197 -5.62,23.367 -16.86,27.507l22.437,31.691l-24.338,0l-19.648,-28.268l-13.691,0l0,28.268l-19.775,0l0,-88.607l33.592,-0c13.775,-0 23.599,2.324 29.473,6.972c5.873,4.648 8.81,12.127 8.81,22.437Zm646.492,-29.409l19.775,-0l0,88.607l-19.775,0l-42.212,-55.522l-0,55.522l-19.775,0l-0,-88.607l18.507,-0l43.48,57.043l0,-57.043Zm-310.189,88.607l-8.24,-19.141l-37.142,0l-8.239,19.141l-21.043,0l38.283,-88.607l19.141,-0l38.282,88.607l-21.042,0Zm211.314,-44.81c-0,-7.902 -2.535,-14.642 -7.606,-20.219c-5.071,-5.578 -11.303,-8.367 -18.698,-8.367c-7.394,0 -13.627,2.789 -18.697,8.367c-5.071,5.577 -7.606,12.317 -7.606,20.219c0,7.901 2.535,14.62 7.606,20.155c5.07,5.535 11.303,8.303 18.697,8.303c7.395,-0 13.627,-2.768 18.698,-8.303c5.071,-5.535 7.606,-12.254 7.606,-20.155Zm-238.061,-17.43l-11.156,25.732l22.184,0l-11.028,-25.732Zm-347.205,16.859c6.761,0 11.367,-1.099 13.817,-3.296c2.451,-2.197 3.676,-5.683 3.676,-10.458c0,-4.774 -1.267,-8.049 -3.802,-9.824c-2.536,-1.775 -6.972,-2.662 -13.311,-2.662l-14.831,0l0,26.24l14.451,0Z" style="fill:rgb(47,70,139);fill-rule:nonzero;"/>
            </g>
            <path d="M1968.44,1994.18l748.394,-521.686l-0,1043.37l-748.394,-521.686l-748.394,521.686l0,-1043.37l748.394,521.686Z" style="fill:url(#_Linear3);"/>
            <path d="M1877.02,1942.03c52.364,-45.738 130.471,-45.738 182.834,-0c199.658,174.394 656.977,573.846 656.977,573.846l-1496.79,-0c0,-0 457.319,-399.452 656.977,-573.846Z" style="fill:url(#_Linear4);"/>
        </g>
        <g>
            <path d="M736.275,980.477c0,-24.866 20.189,-45.054 45.055,-45.054l393.661,-0c24.866,-0 45.054,20.188 45.054,45.054l0,172.66c0,24.867 -20.188,45.055 -45.054,45.055l-0,0l1.391,94.259l-115.1,-94.259l-279.952,0c-24.866,0 -45.055,-20.188 -45.055,-45.055l0,-172.66Z" style="fill:url(#_Linear5);"/>
            <path d="M1093.11,1037.55c-16.445,0 -29.797,13.352 -29.797,29.797c0,16.445 13.352,29.797 29.797,29.797c16.445,-0 29.797,-13.352 29.797,-29.797c-0,-16.445 -13.352,-29.797 -29.797,-29.797Zm-125.649,0c-16.446,0 -29.797,13.352 -29.797,29.797c0,16.445 13.351,29.797 29.797,29.797c16.445,-0 29.797,-13.352 29.797,-29.797c-0,-16.445 -13.352,-29.797 -29.797,-29.797Zm-125.649,0c-16.446,0 -29.797,13.352 -29.797,29.797c-0,16.445 13.351,29.797 29.797,29.797c16.445,-0 29.796,-13.352 29.796,-29.797c0,-16.445 -13.351,-29.797 -29.796,-29.797Z" style="fill:white;"/>
        </g>
        <g>
            <path d="M2282.23,1738.76c334.553,-115.264 621.356,-113.316 869.205,0c-4.66,326.654 -178.37,659.876 -434.602,659.876c-219.39,0 -434.603,-285.39 -434.603,-659.876Z" style="fill:url(#_Linear6);"/>
            <path d="M2367.85,1794.58c268.642,-92.333 498.941,-90.773 697.961,0c-3.742,261.669 -168.732,518.255 -348.98,518.255c-145.496,-0 -348.981,-218.271 -348.981,-518.255Z" style="fill:url(#_Linear7);"/>
            <g>
                <path d="M2649.12,2010.93c0,0 0,-53.555 0,-102.686c0,-18.588 7.384,-36.414 20.528,-49.558c13.144,-13.144 30.97,-20.528 49.558,-20.528c0.001,0 0.003,0 0.004,0c18.588,0 36.414,7.384 49.558,20.528c13.144,13.144 20.528,30.97 20.528,49.558l-0,102.686c-0,5.519 4.481,10 10,10c5.519,0 10,-4.481 10,-10l-0,-102.686c-0,-23.892 -9.491,-46.806 -26.386,-63.7c-16.894,-16.895 -39.808,-26.386 -63.7,-26.386c-0,0 -0.004,0 -0.004,0c-23.892,0 -46.806,9.491 -63.7,26.386c-16.895,16.894 -26.386,39.808 -26.386,63.7c0,49.131 0,102.686 0,102.686c0,5.519 4.481,10 10,10c5.519,0 10,-4.481 10,-10Z" style="fill:white;"/>
                <path d="M2829.57,1989.75c0,-5.523 -4.477,-10 -10,-10c-37.31,-0 -168.154,-0 -205.465,-0c-5.523,-0 -10,4.477 -10,10c0,28.436 0,109.538 0,137.974c0,5.523 4.477,10 10,10c37.311,0 168.155,0 205.465,0c5.523,0 10,-4.477 10,-10c0,-28.436 0,-109.538 0,-137.974Z" style="fill:rgb(207,229,255);"/>
                <path d="M2707.17,2062.31c-4.915,-2.913 -8.171,-7.983 -8.171,-13.745c0,-9.025 7.989,-16.352 17.83,-16.352c9.84,-0 17.829,7.327 17.829,16.352c0,5.762 -3.256,10.832 -8.171,13.745l12.503,22.933l-44.322,0l12.502,-22.933Z" style="fill:rgb(0,128,127);"/>
            </g>
        </g>
        <g>
            <circle cx="1135.63" cy="2141.4" r="284.828" style="fill:url(#_Linear8);"/>
            <path d="M1123.26,2142.97l-67.82,-67.821l-59.588,59.587l127.408,127.409l181.887,-181.888l-59.587,-59.587l-122.3,122.3Z" style="fill:white;"/>
        </g>
    </g>
    <defs>
        <linearGradient id="_Linear1" x1="0" y1="0" x2="1" y2="-0.00476376" gradientUnits="userSpaceOnUse" gradientTransform="matrix(5.04629,2747.66,-1772.88,8.7055,2025.59,455.129)"><stop offset="0" style="stop-color:rgb(74,109,157);stop-opacity:1"/><stop offset="1" style="stop-color:rgb(34,55,89);stop-opacity:1"/></linearGradient>
        <linearGradient id="_Linear2" x1="0" y1="0" x2="1" y2="0" gradientUnits="userSpaceOnUse" gradientTransform="matrix(6.99824e-14,1142.9,-1142.9,6.99824e-14,2078.48,961.81)"><stop offset="0" style="stop-color:rgb(243,249,255);stop-opacity:1"/><stop offset="1" style="stop-color:rgb(198,220,249);stop-opacity:1"/></linearGradient>
        <linearGradient id="_Linear3" x1="0" y1="0" x2="1" y2="0" gradientUnits="userSpaceOnUse" gradientTransform="matrix(3.74063e-14,610.89,-610.89,3.74063e-14,1968.44,1807.7)"><stop offset="0" style="stop-color:rgb(252,204,109);stop-opacity:1"/><stop offset="1" style="stop-color:rgb(250,150,35);stop-opacity:1"/></linearGradient>
        <linearGradient id="_Linear4" x1="0" y1="0" x2="1" y2="0" gradientUnits="userSpaceOnUse" gradientTransform="matrix(3.17581e-14,518.65,-518.65,3.17581e-14,1945.63,1907.72)"><stop offset="0" style="stop-color:rgb(255,227,143);stop-opacity:1"/><stop offset="1" style="stop-color:rgb(251,189,83);stop-opacity:1"/></linearGradient>
        <linearGradient id="_Linear5" x1="0" y1="0" x2="1" y2="0" gradientUnits="userSpaceOnUse" gradientTransform="matrix(1.76625e-14,288.45,390.847,-2.39325e-14,1008.01,935.423)"><stop offset="0" style="stop-color:rgb(250,135,129);stop-opacity:1"/><stop offset="1" style="stop-color:rgb(223,91,110);stop-opacity:1"/></linearGradient>
        <linearGradient id="_Linear6" x1="0" y1="0" x2="1" y2="0" gradientUnits="userSpaceOnUse" gradientTransform="matrix(4.26351e-14,614.45,-696.284,3.76242e-14,2716.83,1696.38)"><stop offset="0" style="stop-color:rgb(85,239,196);stop-opacity:1"/><stop offset="1" style="stop-color:rgb(81,243,162);stop-opacity:1"/></linearGradient>
        <linearGradient id="_Linear7" x1="0" y1="0" x2="1" y2="0" gradientUnits="userSpaceOnUse" gradientTransform="matrix(2.98535e-14,416.243,-487.545,2.54875e-14,2716.83,1830.99)"><stop offset="0" style="stop-color:rgb(0,145,140);stop-opacity:1"/><stop offset="1" style="stop-color:rgb(0,114,116);stop-opacity:1"/></linearGradient>
        <linearGradient id="_Linear8" x1="0" y1="0" x2="1" y2="0" gradientUnits="userSpaceOnUse" gradientTransform="matrix(2.65007e-14,432.79,-432.79,2.65007e-14,1135.63,1919.47)"><stop offset="0" style="stop-color:rgb(146,238,166);stop-opacity:1"/><stop offset="1" style="stop-color:rgb(37,188,151);stop-opacity:1"/></linearGradient>
    </defs>
</svg>
